<svg width="221" height="79" viewBox="0 0 221 79" fill="none" xmlns="http://www.w3.org/2000/svg">
<path d="M3.57986 50.5043L9.78869 11.3495H29.8136C38.2039 11.3495 44.3568 16.8871 43.0702 25.2215C41.7837 33.1084 33.3934 39.0935 25.3947 39.0935H13.2008L11.4108 50.5043H3.57986ZM35.2393 25.2215C35.8546 21.3619 33.0019 18.5652 28.6389 18.5652H16.445L14.3754 31.7659H26.5693C30.8763 31.7659 34.624 28.9132 35.2393 25.2215ZM61.6085 43.6802C67.7054 43.6802 72.7955 38.9816 73.8583 32.1575L77.1585 11.3495H84.9894L81.6893 32.1575C79.9553 42.953 71.2853 51.1755 60.4338 51.1755C49.8061 51.1755 43.4854 42.953 45.2194 32.1575L48.5196 11.3495H56.3505L53.0503 32.1575C51.9876 38.8138 55.6234 43.6802 61.6085 43.6802ZM95.4113 25.2774L91.4399 50.5043H83.609L89.8178 11.3495H99.7743L107.661 41.1631L125.001 11.3495H134.958L128.749 50.5043H120.918L124.889 25.3893L110.122 50.5043H102.235L95.4113 25.2774ZM133.702 50.5043L139.911 11.3495H159.935C168.326 11.3495 174.479 16.8871 173.192 25.2215C171.906 33.1084 163.515 39.0935 155.517 39.0935H143.323L141.533 50.5043H133.702ZM165.361 25.2215C165.976 21.3619 163.124 18.5652 158.761 18.5652H146.567L144.497 31.7659H156.691C160.998 31.7659 164.746 28.9132 165.361 25.2215ZM168.143 47.26C168.535 44.9107 170.492 43.2327 173.009 43.2327C175.359 43.2327 176.757 44.9107 176.366 47.26C175.974 49.7771 174.072 51.3433 171.723 51.3433C169.206 51.3433 167.752 49.7771 168.143 47.26ZM196.703 43.6802C202.8 43.6802 207.89 38.9816 208.953 32.1575L212.253 11.3495H220.084L216.784 32.1575C215.05 42.953 206.38 51.1755 195.529 51.1755C184.901 51.1755 178.58 42.953 180.314 32.1575L183.614 11.3495H191.445L188.145 32.1575C187.082 38.8138 190.718 43.6802 196.703 43.6802Z" fill="white"/>
<path d="M4.74332 69.3916L4.22872 70.8459H1.43195L3.91548 55.184H7.04786L6.10814 61.0684C7.42822 59.9497 9.15103 59.3232 11.0081 59.3232C14.7446 59.3232 17.1162 61.8515 16.5569 65.2747C16.0423 68.6532 12.8428 71.1815 9.12866 71.1815C7.24923 71.1815 5.70541 70.5326 4.74332 69.3916ZM13.4245 65.2747C13.7377 63.4177 12.2834 62.0752 9.88938 62.0752C7.54009 62.0752 5.75016 63.3953 5.43692 65.2747C5.14606 67.1318 6.53325 68.4071 8.88254 68.4071C11.2318 68.4071 13.156 67.087 13.4245 65.2747ZM31.4659 70.8459H28.6915L28.602 69.3692C27.282 70.5103 25.5592 71.1815 23.6573 71.1815C19.9432 71.1815 17.5492 68.6532 18.0638 65.2747C18.6232 61.8515 21.8003 59.3232 25.5368 59.3232C27.4162 59.3232 28.96 59.972 29.9221 61.1355L30.4591 59.6588H33.2335L31.4659 70.8459ZM21.1962 65.2747C20.9277 67.087 22.4044 68.4071 24.7537 68.4071C27.1253 68.4071 28.9153 67.1318 29.2061 65.2747C29.5194 63.3953 28.1098 62.0752 25.7605 62.0752C23.4112 62.0752 21.5094 63.4177 21.1962 65.2747ZM39.9536 55.184L37.4701 70.8459H34.3377L36.8212 55.184H39.9536ZM53.8619 70.8459H51.0875L50.998 69.3692C49.678 70.5103 47.9552 71.1815 46.0534 71.1815C42.3392 71.1815 39.9452 68.6532 40.4598 65.2747C41.0192 61.8515 44.1963 59.3232 47.9328 59.3232C49.8122 59.3232 51.356 59.972 52.3181 61.1355L52.8551 59.6588H55.6295L53.8619 70.8459ZM43.5922 65.2747C43.3237 67.087 44.8004 68.4071 47.1497 68.4071C49.5213 68.4071 51.3113 67.1318 51.6021 65.2747C51.9154 63.3953 50.5058 62.0752 48.1565 62.0752C45.8072 62.0752 43.9054 63.4177 43.5922 65.2747ZM60.6939 65.6327L59.8661 70.8459H56.7337L58.5012 59.6588H61.298L61.3204 61.4935C62.5286 60.151 64.1395 59.3232 65.8847 59.3232C69.2408 59.3232 71.165 61.8962 70.5833 65.6327L69.7554 70.8459H66.6231L67.4509 65.6327C67.7641 63.619 66.5559 62.2095 64.5646 62.2095C62.5733 62.2095 61.0072 63.619 60.6939 65.6327ZM75.8861 65.2747C75.6177 67.0647 77.0049 68.3176 79.1304 68.3176C80.8308 68.3176 82.1957 67.6464 82.8893 66.4829H86.1335C85.1043 69.3244 82.1509 71.1815 78.6829 71.1815C74.7674 71.1815 72.2392 68.6532 72.7538 65.2747C73.3131 61.8515 76.6245 59.3232 80.5623 59.3232C84.008 59.3232 86.3572 61.1355 86.4915 63.9994H83.2472C82.934 62.8583 81.7705 62.1647 80.0925 62.1647C77.9446 62.1647 76.177 63.4624 75.8861 65.2747ZM100.77 66.0354H90.6124C90.7019 67.6464 91.9548 68.7203 93.8342 68.7203C95.1767 68.7203 96.3401 68.2281 97.0337 67.4226H100.211C99.0027 69.7048 96.3849 71.1815 93.3196 71.1815C89.4713 71.1815 86.9877 68.6532 87.5024 65.2747C88.0617 61.8515 91.3283 59.3232 95.1991 59.3232C99.025 59.3232 101.509 61.7172 100.927 65.2747C100.904 65.5208 100.86 65.7893 100.77 66.0354ZM90.8585 64.4693H97.8392C97.7721 62.8807 96.631 61.8515 94.7963 61.8515C92.984 61.8515 91.4402 62.9031 90.8585 64.4693Z" fill="white"/>
<rect x="109.633" y="64.2706" width="20.1367" height="3.35612" rx="1.67806" fill="white"/>
<rect x="136.482" y="64.2706" width="20.1367" height="3.35612" rx="1.67806" fill="white"/>
<rect x="164.45" y="64.2706" width="20.1367" height="3.35612" rx="1.67806" fill="white"/>
<rect x="192.418" y="64.2706" width="20.1367" height="3.35612" rx="1.67806" fill="white"/>
</svg>
